<?xml version="1.0" encoding="UTF-8"?>
<!DOCTYPE svg PUBLIC "-//W3C//DTD SVG 1.1//EN" "http://www.w3.org/Graphics/SVG/1.1/DTD/svg11.dtd">
<svg version="1.2" width="120.1mm" height="58.39mm" viewBox="16305 13141 12010 5839" preserveAspectRatio="xMidYMid" fill-rule="evenodd" stroke-width="28.222" stroke-linejoin="round" xmlns="http://www.w3.org/2000/svg" xmlns:ooo="http://xml.openoffice.org/svg/export" xmlns:xlink="http://www.w3.org/1999/xlink" xmlns:presentation="http://sun.com/xmlns/staroffice/presentation" xmlns:smil="http://www.w3.org/2001/SMIL20/" xmlns:anim="urn:oasis:names:tc:opendocument:xmlns:animation:1.0" xmlns:svg="urn:oasis:names:tc:opendocument:xmlns:svg-compatible:1.0" xml:space="preserve">
 <defs class="EmbeddedBulletChars">
  <g id="bullet-char-template-57356" transform="scale(0.00048828125,-0.00048828125)">
   <path d="M 580,1141 L 1163,571 580,0 -4,571 580,1141 Z"/>
  </g>
  <g id="bullet-char-template-57354" transform="scale(0.00048828125,-0.00048828125)">
   <path d="M 8,1128 L 1137,1128 1137,0 8,0 8,1128 Z"/>
  </g>
  <g id="bullet-char-template-10146" transform="scale(0.00048828125,-0.00048828125)">
   <path d="M 174,0 L 602,739 174,1481 1456,739 174,0 Z M 1358,739 L 309,1346 659,739 1358,739 Z"/>
  </g>
  <g id="bullet-char-template-10132" transform="scale(0.00048828125,-0.00048828125)">
   <path d="M 2015,739 L 1276,0 717,0 1260,543 174,543 174,936 1260,936 717,1481 1274,1481 2015,739 Z"/>
  </g>
  <g id="bullet-char-template-10007" transform="scale(0.00048828125,-0.00048828125)">
   <path d="M 0,-2 C -7,14 -16,27 -25,37 L 356,567 C 262,823 215,952 215,954 215,979 228,992 255,992 264,992 276,990 289,987 310,991 331,999 354,1012 L 381,999 492,748 772,1049 836,1024 860,1049 C 881,1039 901,1025 922,1006 886,937 835,863 770,784 769,783 710,716 594,584 L 774,223 C 774,196 753,168 711,139 L 727,119 C 717,90 699,76 672,76 641,76 570,178 457,381 L 164,-76 C 142,-110 111,-127 72,-127 30,-127 9,-110 8,-76 1,-67 -2,-52 -2,-32 -2,-23 -1,-13 0,-2 Z"/>
  </g>
  <g id="bullet-char-template-10004" transform="scale(0.00048828125,-0.00048828125)">
   <path d="M 285,-33 C 182,-33 111,30 74,156 52,228 41,333 41,471 41,549 55,616 82,672 116,743 169,778 240,778 293,778 328,747 346,684 L 369,508 C 377,444 397,411 428,410 L 1163,1116 C 1174,1127 1196,1133 1229,1133 1271,1133 1292,1118 1292,1087 L 1292,965 C 1292,929 1282,901 1262,881 L 442,47 C 390,-6 338,-33 285,-33 Z"/>
  </g>
  <g id="bullet-char-template-9679" transform="scale(0.00048828125,-0.00048828125)">
   <path d="M 813,0 C 632,0 489,54 383,161 276,268 223,411 223,592 223,773 276,916 383,1023 489,1130 632,1184 813,1184 992,1184 1136,1130 1245,1023 1353,916 1407,772 1407,592 1407,412 1353,268 1245,161 1136,54 992,0 813,0 Z"/>
  </g>
  <g id="bullet-char-template-8226" transform="scale(0.00048828125,-0.00048828125)">
   <path d="M 346,457 C 273,457 209,483 155,535 101,586 74,649 74,723 74,796 101,859 155,911 209,963 273,989 346,989 419,989 480,963 531,910 582,859 608,796 608,723 608,648 583,586 532,535 482,483 420,457 346,457 Z"/>
  </g>
  <g id="bullet-char-template-8211" transform="scale(0.00048828125,-0.00048828125)">
   <path d="M -4,459 L 1135,459 1135,606 -4,606 -4,459 Z"/>
  </g>
  <g id="bullet-char-template-61548" transform="scale(0.00048828125,-0.00048828125)">
   <path d="M 173,740 C 173,903 231,1043 346,1159 462,1274 601,1332 765,1332 928,1332 1067,1274 1183,1159 1299,1043 1357,903 1357,740 1357,577 1299,437 1183,322 1067,206 928,148 765,148 601,148 462,206 346,322 231,437 173,577 173,740 Z"/>
  </g>
 </defs>
 <g class="Page">
  <g class="Group">
   <g class="com.sun.star.drawing.ClosedBezierShape">
    <g id="id3">
     <rect class="BoundingBox" stroke="none" fill="none" x="16305" y="13175" width="1560" height="1237"/>
     <path fill="rgb(0,0,0)" stroke="none" d="M 17086,13514 C 17085,13514 17084,13514 17083,13514 17041,13813 16999,14112 16958,14411 16828,14411 16698,14411 16568,14411 16481,13999 16393,13587 16306,13175 16420,13175 16534,13175 16648,13175 16690,13474 16731,13773 16773,14072 16774,14072 16775,14072 16777,14072 16813,13773 16849,13474 16885,13175 17020,13175 17156,13175 17291,13175 17327,13474 17363,13773 17400,14072 17401,14072 17402,14072 17403,14072 17445,13773 17486,13474 17528,13175 17640,13175 17752,13175 17863,13175 17776,13587 17688,13999 17601,14411 17471,14411 17341,14411 17212,14411 17170,14112 17128,13813 17086,13514 Z"/>
    </g>
   </g>
   <g class="com.sun.star.drawing.ClosedBezierShape">
    <g id="id4">
     <rect class="BoundingBox" stroke="none" fill="none" x="18058" y="13141" width="341" height="1271"/>
     <path fill="rgb(0,0,0)" stroke="none" d="M 18059,13378 C 18059,13299 18059,13220 18059,13142 18171,13142 18284,13142 18397,13142 18397,13220 18397,13299 18397,13378 18284,13378 18171,13378 18059,13378 Z M 18059,14411 C 18059,14117 18059,13824 18059,13530 18171,13530 18284,13530 18397,13530 18397,13824 18397,14117 18397,14411 18284,14411 18171,14411 18059,14411 Z"/>
    </g>
   </g>
   <g class="com.sun.star.drawing.ClosedBezierShape">
    <g id="id5">
     <rect class="BoundingBox" stroke="none" fill="none" x="18642" y="13141" width="341" height="1271"/>
     <path fill="rgb(0,0,0)" stroke="none" d="M 18643,14410 C 18643,13987 18643,13564 18643,13141 18755,13141 18868,13141 18981,13141 18981,13564 18981,13987 18981,14410 18868,14410 18755,14410 18643,14410 Z"/>
    </g>
   </g>
   <g class="com.sun.star.drawing.ClosedBezierShape">
    <g id="id6">
     <rect class="BoundingBox" stroke="none" fill="none" x="19231" y="13141" width="341" height="1271"/>
     <path fill="rgb(0,0,0)" stroke="none" d="M 19232,14410 C 19232,13987 19232,13564 19232,13141 19344,13141 19457,13141 19570,13141 19570,13564 19570,13987 19570,14410 19457,14410 19344,14410 19232,14410 Z"/>
    </g>
   </g>
   <g class="com.sun.star.drawing.ClosedBezierShape">
    <g id="id7">
     <rect class="BoundingBox" stroke="none" fill="none" x="20284" y="13174" width="1171" height="1238"/>
     <path fill="rgb(0,0,0)" stroke="none" d="M 20754,13920 C 20828,13920 20903,13920 20977,13920 20941,13767 20904,13615 20867,13463 20866,13463 20865,13463 20864,13463 20827,13615 20791,13767 20754,13920 Z M 20693,14173 C 20674,14252 20656,14331 20637,14410 20520,14410 20402,14410 20285,14410 20420,13999 20556,13587 20691,13175 20810,13175 20928,13175 21047,13175 21182,13587 21318,13999 21453,14410 21333,14410 21214,14410 21094,14410 21075,14331 21056,14252 21037,14173 20922,14173 20808,14173 20693,14173 Z"/>
    </g>
   </g>
   <g class="com.sun.star.drawing.ClosedBezierShape">
    <g id="id8">
     <rect class="BoundingBox" stroke="none" fill="none" x="21635" y="14055" width="374" height="357"/>
     <path fill="rgb(0,0,0)" stroke="none" d="M 21636,14411 C 21636,14292 21636,14174 21636,14055 21760,14055 21884,14055 22008,14055 22008,14174 22008,14292 22008,14411 21884,14411 21760,14411 21636,14411 Z"/>
    </g>
   </g>
   <g class="com.sun.star.drawing.ClosedBezierShape">
    <g id="id9">
     <rect class="BoundingBox" stroke="none" fill="none" x="22287" y="13175" width="374" height="1237"/>
     <path fill="rgb(0,0,0)" stroke="none" d="M 22288,14411 C 22288,13999 22288,13587 22288,13175 22412,13175 22536,13175 22660,13175 22660,13587 22660,13999 22660,14411 22536,14411 22412,14411 22288,14411 Z"/>
    </g>
   </g>
   <g class="com.sun.star.drawing.ClosedBezierShape">
    <g id="id10">
     <rect class="BoundingBox" stroke="none" fill="none" x="22943" y="14055" width="374" height="357"/>
     <path fill="rgb(0,0,0)" stroke="none" d="M 22944,14411 C 22944,14292 22944,14174 22944,14055 23068,14055 23192,14055 23316,14055 23316,14174 23316,14292 23316,14411 23192,14411 23068,14411 22944,14411 Z"/>
    </g>
   </g>
   <g class="com.sun.star.drawing.ClosedBezierShape">
    <g id="id11">
     <rect class="BoundingBox" stroke="none" fill="none" x="16331" y="15520" width="950" height="1271"/>
     <path fill="rgb(0,0,0)" stroke="none" d="M 17195,15867 C 17081,15811 16965,15783 16848,15783 16795,15783 16755,15792 16727,15810 16700,15829 16687,15854 16687,15884 16687,15931 16723,15965 16797,15986 16974,16033 17099,16090 17171,16156 17243,16222 17279,16306 17279,16409 17279,16533 17236,16627 17151,16692 17065,16757 16936,16789 16763,16790 16691,16789 16613,16777 16530,16753 16447,16729 16381,16699 16331,16663 L 16407,16400 C 16465,16440 16527,16471 16595,16493 16662,16516 16723,16527 16780,16527 16881,16527 16932,16491 16932,16417 16932,16370 16887,16333 16797,16307 16632,16260 16515,16203 16445,16136 16375,16070 16340,15986 16340,15884 16340,15772 16382,15684 16468,15618 16553,15553 16674,15520 16831,15520 16998,15520 17139,15548 17254,15605 L 17195,15867 Z"/>
    </g>
   </g>
   <g class="com.sun.star.drawing.ClosedBezierShape">
    <g id="id12">
     <rect class="BoundingBox" stroke="none" fill="none" x="17406" y="15875" width="899" height="916"/>
     <path fill="rgb(0,0,0)" stroke="none" d="M 17721,16248 L 18007,16248 C 18007,16141 17959,16087 17864,16087 17777,16087 17729,16141 17721,16248 Z M 17725,16435 C 17744,16524 17808,16569 17918,16569 18002,16569 18083,16550 18160,16510 L 18228,16722 C 18124,16767 18011,16789 17889,16790 17743,16789 17626,16748 17538,16666 17450,16584 17406,16472 17406,16333 17406,16191 17447,16080 17527,15998 17608,15916 17717,15876 17855,15876 17996,15876 18106,15915 18185,15995 18264,16075 18304,16187 18304,16333 18304,16363 18301,16397 18295,16435 L 17725,16435 Z"/>
    </g>
   </g>
   <g class="com.sun.star.drawing.ClosedBezierShape">
    <g id="id13">
     <rect class="BoundingBox" stroke="none" fill="none" x="18405" y="15605" width="781" height="1186"/>
     <path fill="rgb(0,0,0)" stroke="none" d="M 18913,16790 C 18801,16789 18719,16764 18664,16713 18610,16661 18583,16580 18583,16468 L 18583,16147 18405,16147 18405,15926 18583,15926 18583,15605 18912,15605 18912,15926 19184,15926 19184,16147 18912,16147 18912,16417 C 18912,16471 18918,16507 18930,16526 18943,16544 18965,16553 18998,16553 19048,16553 19098,16544 19150,16527 L 19184,16756 C 19101,16778 19010,16789 18913,16790 Z"/>
    </g>
   </g>
   <g class="com.sun.star.drawing.ClosedBezierShape">
    <g id="id14">
     <rect class="BoundingBox" stroke="none" fill="none" x="19861" y="15537" width="1170" height="1237"/>
     <path fill="rgb(0,0,0)" stroke="none" d="M 20447,16045 C 20448,16045 20450,16045 20451,16045 20518,15875 20585,15706 20652,15537 20778,15537 20904,15537 21030,15537 20893,15797 20757,16056 20620,16316 20620,16468 20620,16620 20620,16773 20504,16773 20387,16773 20271,16773 20271,16620 20271,16468 20271,16316 20135,16056 19998,15797 19861,15537 19990,15537 20118,15537 20246,15537 20313,15706 20380,15875 20447,16045 Z"/>
    </g>
   </g>
   <g class="com.sun.star.drawing.ClosedBezierShape">
    <g id="id15">
     <rect class="BoundingBox" stroke="none" fill="none" x="20920" y="15875" width="933" height="916"/>
     <path fill="rgb(0,0,0)" stroke="none" d="M 21042,15997 C 21124,15916 21238,15876 21386,15876 21534,15876 21648,15916 21730,15997 21811,16079 21852,16190 21852,16333 21852,16475 21811,16586 21730,16668 21648,16749 21534,16789 21386,16790 21238,16789 21124,16749 21042,16668 20961,16586 20920,16475 20920,16333 20920,16190 20961,16079 21042,15997 Z M 21273,16507 C 21297,16542 21335,16559 21386,16559 21437,16559 21475,16542 21499,16507 21524,16472 21537,16414 21537,16333 21537,16251 21524,16193 21499,16158 21475,16123 21437,16106 21386,16106 21335,16106 21297,16123 21273,16158 21248,16193 21235,16251 21235,16333 21235,16414 21248,16472 21273,16507 Z"/>
    </g>
   </g>
   <g class="com.sun.star.drawing.ClosedBezierShape">
    <g id="id16">
     <rect class="BoundingBox" stroke="none" fill="none" x="22000" y="15892" width="865" height="899"/>
     <path fill="rgb(0,0,0)" stroke="none" d="M 22557,16654 C 22526,16696 22486,16729 22440,16753 22393,16777 22345,16789 22296,16789 22190,16789 22114,16762 22069,16707 22023,16651 22000,16555 22000,16417 L 22000,15892 22318,15892 22318,16383 C 22318,16449 22325,16492 22337,16513 22350,16534 22373,16544 22407,16544 22442,16544 22473,16525 22500,16487 22528,16448 22542,16403 22542,16349 L 22542,15892 22864,15892 22864,16773 22567,16773 22561,16654 22557,16654 Z"/>
    </g>
   </g>
   <g class="com.sun.star.drawing.ClosedBezierShape">
    <g id="id17">
     <rect class="BoundingBox" stroke="none" fill="none" x="23629" y="15536" width="798" height="1238"/>
     <path fill="rgb(0,0,0)" stroke="none" d="M 24391,16045 C 24391,16129 24391,16214 24391,16299 24250,16299 24109,16299 23968,16299 23968,16457 23968,16615 23968,16773 23855,16773 23742,16773 23630,16773 23630,16361 23630,15949 23630,15537 23895,15537 24160,15537 24425,15537 24425,15627 24425,15717 24425,15808 24273,15808 24121,15808 23968,15808 23968,15887 23968,15966 23968,16045 24109,16045 24250,16045 24391,16045 Z"/>
    </g>
   </g>
   <g class="com.sun.star.drawing.ClosedBezierShape">
    <g id="id18">
     <rect class="BoundingBox" stroke="none" fill="none" x="24598" y="15875" width="713" height="899"/>
     <path fill="rgb(0,0,0)" stroke="none" d="M 25310,15876 L 25310,16129 C 25183,16129 25088,16153 25024,16200 24959,16248 24927,16314 24927,16400 L 24927,16773 24599,16773 24599,15892 24902,15892 24903,16062 24907,16062 C 25004,15938 25138,15876 25310,15876 Z"/>
    </g>
   </g>
   <g class="com.sun.star.drawing.ClosedBezierShape">
    <g id="id19">
     <rect class="BoundingBox" stroke="none" fill="none" x="25394" y="15875" width="899" height="916"/>
     <path fill="rgb(0,0,0)" stroke="none" d="M 25709,16248 L 25995,16248 C 25995,16141 25947,16087 25852,16087 25765,16087 25717,16141 25709,16248 Z M 25713,16435 C 25732,16524 25796,16569 25906,16569 25990,16569 26071,16550 26148,16510 L 26216,16722 C 26112,16767 25999,16789 25877,16790 25731,16789 25614,16748 25526,16666 25438,16584 25394,16472 25394,16333 25394,16191 25435,16080 25515,15998 25596,15916 25705,15876 25843,15876 25984,15876 26094,15915 26173,15995 26252,16075 26292,16187 26292,16333 26292,16363 26289,16397 26283,16435 L 25713,16435 Z"/>
    </g>
   </g>
   <g class="com.sun.star.drawing.ClosedBezierShape">
    <g id="id20">
     <rect class="BoundingBox" stroke="none" fill="none" x="26415" y="15875" width="899" height="916"/>
     <path fill="rgb(0,0,0)" stroke="none" d="M 26730,16248 L 27016,16248 C 27016,16141 26968,16087 26873,16087 26786,16087 26738,16141 26730,16248 Z M 26734,16435 C 26753,16524 26817,16569 26927,16569 27011,16569 27092,16550 27169,16510 L 27237,16722 C 27133,16767 27020,16789 26898,16790 26752,16789 26635,16748 26547,16666 26459,16584 26415,16472 26415,16333 26415,16191 26456,16080 26536,15998 26617,15916 26726,15876 26864,15876 27005,15876 27115,15915 27194,15995 27273,16075 27313,16187 27313,16333 27313,16363 27310,16397 27304,16435 L 26734,16435 Z"/>
    </g>
   </g>
   <g class="com.sun.star.drawing.ClosedBezierShape">
    <g id="id21">
     <rect class="BoundingBox" stroke="none" fill="none" x="27337" y="15520" width="933" height="1254"/>
     <path fill="rgb(0,0,0)" stroke="none" d="M 28269,15825 C 28269,15868 28263,15906 28252,15941 28241,15975 28223,16006 28198,16033 28173,16060 28151,16081 28133,16096 28114,16112 28087,16131 28052,16155 28014,16181 27986,16200 27969,16214 27952,16228 27934,16248 27914,16277 27894,16305 27883,16335 27879,16366 L 27575,16366 C 27575,16325 27581,16286 27593,16250 27606,16215 27625,16182 27652,16151 27678,16121 27701,16098 27719,16082 27737,16066 27763,16045 27797,16018 27824,15996 27844,15980 27857,15968 27871,15956 27884,15942 27896,15925 27907,15908 27913,15891 27913,15876 27913,15814 27863,15782 27761,15782 27655,15782 27534,15805 27397,15850 L 27338,15588 C 27489,15543 27647,15520 27812,15520 27955,15520 28067,15548 28148,15605 28229,15661 28269,15735 28269,15825 Z M 27558,16773 L 27558,16502 27896,16502 27896,16773 27558,16773 Z"/>
    </g>
   </g>
   <g class="com.sun.star.drawing.ClosedBezierShape">
    <g id="id22">
     <rect class="BoundingBox" stroke="none" fill="none" x="22908" y="18790" width="200" height="40"/>
     <path fill="rgb(0,0,0)" stroke="none" d="M 22927,18829 C 22922,18829 22917,18827 22914,18823 22910,18820 22908,18815 22908,18809 22908,18804 22910,18800 22914,18796 22917,18792 22922,18790 22927,18790 L 23087,18790 C 23093,18790 23097,18792 23101,18796 23105,18800 23106,18804 23106,18809 23106,18815 23105,18820 23101,18823 23097,18827 23093,18829 23087,18829 L 22927,18829 Z"/>
    </g>
   </g>
   <g class="com.sun.star.drawing.ClosedBezierShape">
    <g id="id23">
     <rect class="BoundingBox" stroke="none" fill="none" x="23353" y="18516" width="361" height="464"/>
     <path fill="rgb(0,0,0)" stroke="none" d="M 23557,18978 C 23517,18978 23481,18969 23451,18950 23421,18931 23397,18904 23380,18869 23362,18835 23354,18794 23354,18748 23354,18701 23362,18660 23380,18626 23397,18591 23421,18565 23451,18545 23481,18526 23517,18516 23557,18516 23588,18516 23617,18523 23642,18535 23668,18547 23690,18565 23708,18587 23712,18592 23714,18596 23712,18601 23711,18606 23708,18610 23703,18613 L 23701,18614 C 23698,18616 23694,18617 23689,18616 23684,18616 23679,18613 23675,18609 23645,18573 23606,18555 23557,18555 23525,18555 23497,18563 23473,18578 23448,18594 23429,18616 23415,18645 23401,18673 23394,18708 23394,18748 23394,18787 23401,18822 23415,18851 23429,18880 23448,18902 23473,18917 23497,18933 23525,18940 23557,18940 23581,18940 23603,18936 23623,18926 23643,18917 23661,18903 23675,18886 23684,18878 23693,18876 23701,18881 L 23703,18883 C 23708,18886 23711,18890 23712,18894 23714,18899 23713,18904 23709,18909 23691,18931 23669,18948 23643,18960 23617,18972 23588,18978 23557,18978 Z"/>
    </g>
   </g>
   <g class="com.sun.star.drawing.ClosedBezierShape">
    <g id="id24">
     <rect class="BoundingBox" stroke="none" fill="none" x="23766" y="18525" width="380" height="447"/>
     <path fill="rgb(0,0,0)" stroke="none" d="M 23782,18970 C 23776,18970 23771,18969 23769,18965 23766,18961 23766,18956 23769,18949 L 23933,18541 C 23936,18531 23943,18526 23954,18526 L 23957,18526 C 23968,18526 23975,18531 23978,18541 L 24142,18949 C 24147,18963 24143,18970 24129,18970 L 24123,18970 C 24112,18970 24106,18966 24102,18956 L 24055,18836 23856,18836 23808,18956 C 23805,18966 23798,18970 23787,18970 L 23782,18970 Z M 23869,18799 L 24041,18799 23956,18581 23869,18799 Z"/>
    </g>
   </g>
   <g class="com.sun.star.drawing.ClosedBezierShape">
    <g id="id25">
     <rect class="BoundingBox" stroke="none" fill="none" x="24203" y="18516" width="310" height="464"/>
     <path fill="rgb(0,0,0)" stroke="none" d="M 24361,18979 C 24331,18978 24303,18974 24277,18965 24252,18955 24229,18940 24210,18920 24201,18910 24202,18900 24213,18893 24223,18886 24232,18887 24241,18897 24272,18926 24312,18941 24361,18941 24381,18941 24400,18938 24416,18932 24433,18926 24446,18917 24457,18905 24467,18893 24472,18877 24472,18859 24472,18843 24469,18829 24462,18817 24455,18805 24443,18795 24424,18786 24405,18777 24376,18769 24339,18763 24256,18747 24214,18706 24214,18639 24214,18615 24220,18594 24232,18576 24244,18557 24260,18543 24281,18532 24303,18522 24327,18517 24355,18517 24380,18517 24404,18521 24425,18529 24447,18537 24467,18549 24485,18564 24496,18573 24496,18583 24486,18592 24477,18600 24468,18600 24457,18591 24442,18579 24426,18570 24409,18564 24393,18558 24374,18556 24354,18556 24326,18556 24302,18563 24283,18577 24264,18591 24255,18611 24255,18638 24255,18661 24262,18680 24277,18695 24292,18709 24319,18720 24359,18727 24413,18737 24453,18752 24476,18773 24500,18793 24512,18822 24512,18858 24512,18883 24505,18905 24492,18923 24479,18941 24460,18955 24438,18964 24415,18974 24389,18978 24361,18979 Z"/>
    </g>
   </g>
   <g class="com.sun.star.drawing.ClosedBezierShape">
    <g id="id26">
     <rect class="BoundingBox" stroke="none" fill="none" x="24598" y="18526" width="321" height="454"/>
     <path fill="rgb(0,0,0)" stroke="none" d="M 24758,18979 C 24708,18978 24668,18963 24641,18932 24613,18902 24599,18857 24599,18798 L 24599,18547 C 24599,18533 24606,18527 24619,18527 24632,18527 24639,18533 24639,18547 L 24639,18797 C 24639,18842 24649,18877 24669,18902 24689,18927 24719,18940 24758,18940 24798,18940 24828,18927 24848,18902 24868,18877 24878,18842 24878,18797 L 24878,18547 C 24878,18533 24885,18527 24898,18527 24911,18527 24918,18533 24918,18547 L 24918,18798 C 24918,18857 24904,18902 24876,18932 24849,18963 24810,18978 24758,18979 Z"/>
    </g>
   </g>
   <g class="com.sun.star.drawing.ClosedBezierShape">
    <g id="id27">
     <rect class="BoundingBox" stroke="none" fill="none" x="24981" y="18525" width="380" height="447"/>
     <path fill="rgb(0,0,0)" stroke="none" d="M 24997,18970 C 24991,18970 24986,18969 24984,18965 24981,18961 24981,18956 24984,18949 L 25148,18541 C 25151,18531 25158,18526 25169,18526 L 25172,18526 C 25183,18526 25190,18531 25193,18541 L 25357,18949 C 25362,18963 25358,18970 25344,18970 L 25338,18970 C 25327,18970 25321,18966 25317,18956 L 25270,18836 25071,18836 25023,18956 C 25020,18966 25013,18970 25002,18970 L 24997,18970 Z M 25084,18799 L 25256,18799 25171,18581 25084,18799 Z"/>
    </g>
   </g>
   <g class="com.sun.star.drawing.ClosedBezierShape">
    <g id="id28">
     <rect class="BoundingBox" stroke="none" fill="none" x="25430" y="18526" width="286" height="446"/>
     <path fill="rgb(0,0,0)" stroke="none" d="M 25451,18971 C 25437,18971 25430,18964 25430,18950 L 25430,18547 C 25430,18533 25437,18526 25450,18526 25463,18526 25469,18533 25469,18547 L 25469,18933 25694,18933 C 25708,18933 25715,18939 25715,18951 25715,18964 25708,18971 25694,18971 L 25451,18971 Z"/>
    </g>
   </g>
   <g class="com.sun.star.drawing.ClosedBezierShape">
    <g id="id29">
     <rect class="BoundingBox" stroke="none" fill="none" x="25936" y="18666" width="256" height="307"/>
     <path fill="rgb(0,0,0)" stroke="none" d="M 26066,18971 C 26061,18971 26057,18970 26053,18967 26048,18965 26045,18960 26043,18954 L 25939,18691 C 25936,18684 25936,18678 25938,18674 25940,18669 25945,18667 25952,18667 25964,18667 25972,18672 25976,18683 L 26065,18916 26152,18683 C 26157,18672 26165,18667 26176,18667 26183,18667 26187,18669 26189,18674 26191,18678 26191,18684 26189,18691 L 26088,18954 C 26084,18966 26076,18971 26066,18971 Z"/>
    </g>
   </g>
   <g class="com.sun.star.drawing.ClosedBezierShape">
    <g id="id30">
     <rect class="BoundingBox" stroke="none" fill="none" x="26232" y="18659" width="272" height="320"/>
     <path fill="rgb(0,0,0)" stroke="none" d="M 26374,18978 C 26347,18977 26322,18971 26301,18958 26280,18945 26263,18927 26251,18903 26239,18879 26233,18851 26233,18818 26233,18786 26239,18759 26251,18735 26263,18711 26280,18693 26301,18680 26322,18666 26346,18660 26373,18660 26401,18660 26424,18666 26443,18680 26463,18693 26477,18711 26487,18731 26498,18752 26503,18773 26503,18795 26503,18803 26501,18808 26497,18811 26494,18814 26489,18816 26482,18816 L 26272,18816 C 26271,18853 26280,18884 26299,18908 26317,18931 26343,18943 26375,18943 26415,18943 26445,18925 26464,18889 26472,18878 26481,18875 26490,18880 26501,18887 26503,18896 26494,18908 26468,18954 26428,18977 26374,18978 Z M 26274,18783 L 26465,18783 C 26463,18766 26457,18751 26449,18737 26441,18724 26430,18713 26417,18705 26404,18697 26390,18693 26373,18693 26347,18693 26326,18701 26308,18716 26291,18732 26279,18754 26274,18783 Z"/>
    </g>
   </g>
   <g class="com.sun.star.drawing.ClosedBezierShape">
    <g id="id31">
     <rect class="BoundingBox" stroke="none" fill="none" x="26583" y="18659" width="178" height="313"/>
     <path fill="rgb(0,0,0)" stroke="none" d="M 26604,18971 C 26591,18971 26584,18964 26584,18950 L 26584,18687 C 26584,18673 26591,18666 26604,18666 26609,18666 26614,18668 26617,18671 26621,18673 26623,18678 26623,18684 L 26623,18719 C 26631,18702 26645,18687 26663,18676 26681,18665 26702,18659 26724,18659 26735,18659 26744,18661 26750,18664 26757,18667 26760,18672 26760,18680 26760,18686 26758,18691 26754,18694 26751,18697 26747,18698 26741,18698 26739,18698 26735,18698 26732,18697 26728,18697 26724,18697 26721,18697 26703,18697 26686,18701 26672,18709 26657,18717 26645,18728 26636,18742 26628,18756 26623,18771 26623,18788 L 26623,18950 C 26623,18964 26617,18971 26604,18971 Z"/>
    </g>
   </g>
   <g class="com.sun.star.drawing.ClosedBezierShape">
    <g id="id32">
     <rect class="BoundingBox" stroke="none" fill="none" x="26805" y="18658" width="237" height="321"/>
     <path fill="rgb(0,0,0)" stroke="none" d="M 26925,18978 C 26902,18977 26881,18974 26861,18966 26842,18958 26826,18947 26813,18932 26807,18928 26805,18923 26805,18918 26806,18913 26808,18909 26812,18905 26820,18898 26829,18899 26840,18908 26850,18919 26862,18927 26877,18933 26892,18939 26909,18942 26926,18942 26947,18942 26965,18937 26979,18928 26994,18919 27001,18905 27001,18885 27001,18868 26994,18856 26980,18849 26966,18843 26945,18836 26916,18830 26898,18826 26882,18822 26866,18816 26850,18811 26837,18802 26827,18791 26818,18780 26813,18765 26813,18745 26813,18726 26818,18711 26828,18698 26838,18686 26851,18676 26867,18669 26884,18662 26901,18659 26920,18659 26962,18659 26993,18672 27015,18698 27021,18702 27024,18706 27024,18711 27024,18716 27021,18720 27017,18724 27013,18728 27009,18730 27004,18729 27000,18728 26995,18726 26990,18722 26974,18704 26951,18695 26921,18695 26899,18695 26882,18699 26870,18709 26858,18718 26852,18730 26852,18744 26852,18760 26859,18771 26871,18777 26884,18784 26904,18790 26931,18796 26951,18800 26968,18806 26985,18812 27002,18818 27015,18827 27025,18839 27036,18850 27041,18866 27041,18886 27041,18913 27030,18935 27009,18952 26988,18969 26960,18977 26925,18978 Z"/>
    </g>
   </g>
   <g class="com.sun.star.drawing.ClosedBezierShape">
    <g id="id33">
     <rect class="BoundingBox" stroke="none" fill="none" x="27112" y="18542" width="61" height="430"/>
     <path fill="rgb(0,0,0)" stroke="none" d="M 27143,18970 C 27130,18970 27124,18964 27124,18950 L 27124,18687 C 27124,18673 27130,18666 27143,18666 27156,18666 27162,18673 27162,18687 L 27162,18950 C 27162,18964 27156,18970 27143,18970 Z M 27143,18600 C 27135,18600 27128,18598 27122,18592 27116,18586 27113,18579 27113,18571 27113,18563 27116,18556 27122,18550 27128,18545 27135,18542 27143,18542 27151,18542 27158,18545 27163,18550 27169,18556 27171,18563 27171,18571 27171,18579 27169,18586 27163,18592 27158,18598 27151,18600 27143,18600 Z"/>
    </g>
   </g>
   <g class="com.sun.star.drawing.ClosedBezierShape">
    <g id="id34">
     <rect class="BoundingBox" stroke="none" fill="none" x="27248" y="18658" width="285" height="321"/>
     <path fill="rgb(0,0,0)" stroke="none" d="M 27390,18978 C 27363,18977 27339,18971 27317,18957 27296,18944 27280,18925 27267,18901 27255,18877 27249,18849 27249,18818 27249,18787 27255,18759 27267,18735 27280,18711 27296,18692 27317,18679 27339,18665 27363,18659 27390,18659 27417,18659 27442,18665 27463,18679 27484,18692 27501,18711 27513,18735 27525,18759 27531,18787 27531,18818 27531,18849 27525,18877 27513,18901 27501,18925 27484,18944 27463,18957 27442,18971 27417,18977 27390,18978 Z M 27390,18941 C 27410,18941 27427,18936 27443,18926 27458,18916 27470,18902 27479,18883 27488,18865 27493,18843 27493,18818 27493,18793 27488,18771 27479,18753 27470,18734 27458,18720 27443,18710 27427,18700 27410,18695 27390,18695 27360,18695 27336,18706 27316,18728 27297,18750 27288,18780 27288,18818 27288,18855 27297,18885 27316,18908 27336,18930 27360,18941 27390,18941 Z"/>
    </g>
   </g>
   <g class="com.sun.star.drawing.ClosedBezierShape">
    <g id="id35">
     <rect class="BoundingBox" stroke="none" fill="none" x="27608" y="18658" width="243" height="314"/>
     <path fill="rgb(0,0,0)" stroke="none" d="M 27629,18970 C 27616,18970 27609,18964 27609,18950 L 27609,18687 C 27609,18673 27615,18666 27627,18666 27640,18666 27646,18671 27646,18680 L 27646,18709 C 27656,18695 27669,18683 27686,18673 27702,18664 27720,18659 27741,18659 27774,18659 27800,18669 27820,18690 27840,18711 27850,18740 27850,18779 L 27850,18950 C 27850,18964 27843,18970 27831,18970 27818,18970 27812,18964 27812,18950 L 27812,18784 C 27812,18755 27804,18733 27790,18718 27776,18703 27758,18696 27735,18696 27718,18696 27703,18699 27690,18707 27677,18714 27666,18724 27659,18736 27651,18749 27648,18763 27648,18778 L 27648,18950 C 27648,18964 27641,18970 27629,18970 Z"/>
    </g>
   </g>
   <g class="com.sun.star.drawing.ClosedBezierShape">
    <g id="id36">
     <rect class="BoundingBox" stroke="none" fill="none" x="28115" y="18790" width="200" height="40"/>
     <path fill="rgb(0,0,0)" stroke="none" d="M 28134,18829 C 28129,18829 28124,18827 28121,18823 28117,18820 28115,18815 28115,18809 28115,18804 28117,18800 28121,18796 28124,18792 28129,18790 28134,18790 L 28294,18790 C 28300,18790 28304,18792 28308,18796 28312,18800 28313,18804 28313,18809 28313,18815 28312,18820 28308,18823 28304,18827 28300,18829 28294,18829 L 28134,18829 Z"/>
    </g>
   </g>
  </g>
 </g>
</svg>