<?xml version="1.0" encoding="UTF-8"?>
<!DOCTYPE svg PUBLIC "-//W3C//DTD SVG 1.1//EN" "http://www.w3.org/Graphics/SVG/1.1/DTD/svg11.dtd">
<svg version="1.2" width="107.61mm" height="69.8mm" viewBox="14697 2600 10761 6980" preserveAspectRatio="xMidYMid" fill-rule="evenodd" stroke-width="28.222" stroke-linejoin="round" xmlns="http://www.w3.org/2000/svg" xmlns:ooo="http://xml.openoffice.org/svg/export" xmlns:xlink="http://www.w3.org/1999/xlink" xmlns:presentation="http://sun.com/xmlns/staroffice/presentation" xmlns:smil="http://www.w3.org/2001/SMIL20/" xmlns:anim="urn:oasis:names:tc:opendocument:xmlns:animation:1.0" xmlns:svg="urn:oasis:names:tc:opendocument:xmlns:svg-compatible:1.0" xml:space="preserve">
 <defs class="EmbeddedBulletChars">
  <g id="bullet-char-template-57356" transform="scale(0.00048828125,-0.00048828125)">
   <path d="M 580,1141 L 1163,571 580,0 -4,571 580,1141 Z"/>
  </g>
  <g id="bullet-char-template-57354" transform="scale(0.00048828125,-0.00048828125)">
   <path d="M 8,1128 L 1137,1128 1137,0 8,0 8,1128 Z"/>
  </g>
  <g id="bullet-char-template-10146" transform="scale(0.00048828125,-0.00048828125)">
   <path d="M 174,0 L 602,739 174,1481 1456,739 174,0 Z M 1358,739 L 309,1346 659,739 1358,739 Z"/>
  </g>
  <g id="bullet-char-template-10132" transform="scale(0.00048828125,-0.00048828125)">
   <path d="M 2015,739 L 1276,0 717,0 1260,543 174,543 174,936 1260,936 717,1481 1274,1481 2015,739 Z"/>
  </g>
  <g id="bullet-char-template-10007" transform="scale(0.00048828125,-0.00048828125)">
   <path d="M 0,-2 C -7,14 -16,27 -25,37 L 356,567 C 262,823 215,952 215,954 215,979 228,992 255,992 264,992 276,990 289,987 310,991 331,999 354,1012 L 381,999 492,748 772,1049 836,1024 860,1049 C 881,1039 901,1025 922,1006 886,937 835,863 770,784 769,783 710,716 594,584 L 774,223 C 774,196 753,168 711,139 L 727,119 C 717,90 699,76 672,76 641,76 570,178 457,381 L 164,-76 C 142,-110 111,-127 72,-127 30,-127 9,-110 8,-76 1,-67 -2,-52 -2,-32 -2,-23 -1,-13 0,-2 Z"/>
  </g>
  <g id="bullet-char-template-10004" transform="scale(0.00048828125,-0.00048828125)">
   <path d="M 285,-33 C 182,-33 111,30 74,156 52,228 41,333 41,471 41,549 55,616 82,672 116,743 169,778 240,778 293,778 328,747 346,684 L 369,508 C 377,444 397,411 428,410 L 1163,1116 C 1174,1127 1196,1133 1229,1133 1271,1133 1292,1118 1292,1087 L 1292,965 C 1292,929 1282,901 1262,881 L 442,47 C 390,-6 338,-33 285,-33 Z"/>
  </g>
  <g id="bullet-char-template-9679" transform="scale(0.00048828125,-0.00048828125)">
   <path d="M 813,0 C 632,0 489,54 383,161 276,268 223,411 223,592 223,773 276,916 383,1023 489,1130 632,1184 813,1184 992,1184 1136,1130 1245,1023 1353,916 1407,772 1407,592 1407,412 1353,268 1245,161 1136,54 992,0 813,0 Z"/>
  </g>
  <g id="bullet-char-template-8226" transform="scale(0.00048828125,-0.00048828125)">
   <path d="M 346,457 C 273,457 209,483 155,535 101,586 74,649 74,723 74,796 101,859 155,911 209,963 273,989 346,989 419,989 480,963 531,910 582,859 608,796 608,723 608,648 583,586 532,535 482,483 420,457 346,457 Z"/>
  </g>
  <g id="bullet-char-template-8211" transform="scale(0.00048828125,-0.00048828125)">
   <path d="M -4,459 L 1135,459 1135,606 -4,606 -4,459 Z"/>
  </g>
  <g id="bullet-char-template-61548" transform="scale(0.00048828125,-0.00048828125)">
   <path d="M 173,740 C 173,903 231,1043 346,1159 462,1274 601,1332 765,1332 928,1332 1067,1274 1183,1159 1299,1043 1357,903 1357,740 1357,577 1299,437 1183,322 1067,206 928,148 765,148 601,148 462,206 346,322 231,437 173,577 173,740 Z"/>
  </g>
 </defs>
 <g class="Page">
  <g class="Group">
   <g class="com.sun.star.drawing.ClosedBezierShape">
    <g id="id3">
     <rect class="BoundingBox" stroke="none" fill="none" x="14697" y="2600" width="1247" height="1214"/>
     <path fill="rgb(0,0,0)" stroke="none" d="M 15942,3813 L 15942,3765 C 15853,3762 15793,3721 15761,3642 L 15341,2601 15296,2601 14884,3631 C 14849,3721 14791,3765 14708,3765 L 14698,3765 14698,3813 15096,3813 15096,3765 C 14998,3765 14948,3746 14948,3708 14948,3692 14955,3667 14967,3633 L 15059,3395 15536,3395 15631,3625 C 15643,3650 15648,3677 15648,3706 15648,3745 15599,3765 15499,3765 L 15499,3813 15942,3813 Z M 15514,3330 L 15082,3330 15297,2787 15514,3330 Z"/>
    </g>
   </g>
   <g class="com.sun.star.drawing.ClosedBezierShape">
    <g id="id4">
     <rect class="BoundingBox" stroke="none" fill="none" x="16019" y="2619" width="469" height="1195"/>
     <path fill="rgb(0,0,0)" stroke="none" d="M 16486,3813 L 16486,3765 C 16425,3762 16383,3753 16358,3741 16327,3726 16312,3689 16312,3633 L 16312,2802 C 16312,2743 16331,2704 16366,2689 16390,2677 16430,2670 16486,2666 L 16486,2619 16019,2619 16019,2666 C 16080,2672 16124,2680 16149,2692 16178,2707 16192,2743 16192,2802 L 16192,3633 C 16192,3694 16176,3731 16144,3745 16121,3755 16078,3762 16019,3765 L 16019,3813 16486,3813 Z"/>
    </g>
   </g>
   <g class="com.sun.star.drawing.ClosedBezierShape">
    <g id="id5">
     <rect class="BoundingBox" stroke="none" fill="none" x="16774" y="2672" width="1107" height="1167"/>
     <path fill="rgb(0,0,0)" stroke="none" d="M 17842,3674 C 17796,3622 17724,3581 17644,3553 17639,3468 17638,3394 17638,3326 17638,3249 17639,3182 17642,3126 17678,3119 17713,3105 17744,3088 17798,3058 17823,3027 17823,3002 17823,2981 17802,2963 17764,2956 17715,2947 17687,2934 17659,2917 17661,2882 17663,2854 17663,2830 17663,2759 17644,2731 17577,2689 17561,2679 17543,2673 17531,2673 17513,2673 17503,2682 17503,2698 17503,2711 17510,2731 17527,2754 17550,2785 17561,2908 17565,3054 L 17542,3054 C 17470,3054 17390,3034 17311,2987 17299,2979 17288,2977 17281,2977 17269,2977 17262,2984 17262,2993 17262,3002 17268,3014 17281,3025 17364,3102 17463,3135 17556,3135 L 17567,3135 C 17568,3174 17568,3214 17568,3252 17568,3357 17567,3457 17564,3531 17516,3520 17466,3514 17420,3514 17285,3514 17176,3562 17176,3676 17176,3784 17281,3837 17392,3837 17515,3837 17644,3773 17647,3646 17694,3673 17736,3705 17768,3747 17798,3784 17824,3800 17845,3800 17866,3800 17879,3782 17879,3757 17879,3735 17869,3704 17842,3674 Z M 17038,3151 C 17031,3151 17022,3157 17013,3172 16962,3252 16914,3350 16887,3451 16880,3479 16868,3489 16860,3489 16851,3489 16844,3479 16844,3460 16844,3455 16845,3449 16845,3442 16868,3326 16946,3082 16946,2929 16946,2882 16939,2843 16921,2820 16894,2785 16868,2772 16848,2772 16831,2772 16820,2784 16820,2803 16820,2820 16829,2842 16847,2868 16862,2888 16868,2919 16868,2963 16868,3061 16835,3216 16786,3439 16779,3473 16774,3508 16774,3541 16774,3614 16791,3683 16816,3744 16838,3800 16869,3827 16896,3827 16920,3827 16937,3803 16937,3760 16937,3742 16934,3720 16927,3693 16922,3677 16920,3656 16920,3634 16920,3501 17001,3291 17044,3187 17048,3178 17050,3171 17050,3166 17050,3157 17045,3151 17038,3151 Z M 17654,2953 C 17669,2965 17684,2977 17703,2988 17710,2994 17715,3000 17715,3005 17715,3009 17712,3012 17706,3016 17688,3025 17669,3033 17648,3039 17650,3006 17653,2978 17654,2953 Z M 17562,3612 C 17561,3716 17456,3765 17365,3765 17296,3765 17233,3736 17233,3683 17233,3614 17306,3580 17399,3580 17450,3580 17507,3590 17562,3609 L 17562,3612 Z"/>
    </g>
   </g>
   <g class="com.sun.star.drawing.ClosedBezierShape">
    <g id="id6">
     <rect class="BoundingBox" stroke="none" fill="none" x="14907" y="4545" width="1260" height="1377"/>
     <path fill="rgb(0,0,0)" stroke="none" d="M 15653,5017 C 15653,5006 15651,5000 15649,4993 15638,4957 15617,4940 15600,4940 15585,4940 15573,4954 15573,4983 15573,4991 15573,5001 15577,5013 15577,5017 15578,5018 15578,5020 15527,5025 15477,5037 15424,5056 L 15429,4925 C 15556,4906 15682,4859 15766,4801 15802,4778 15814,4756 15814,4739 15814,4715 15785,4700 15748,4700 15719,4700 15687,4708 15661,4729 15604,4773 15522,4813 15434,4839 15439,4766 15445,4715 15445,4680 15445,4608 15428,4592 15363,4561 15341,4549 15323,4546 15307,4546 15284,4546 15270,4558 15270,4576 15270,4595 15284,4619 15312,4644 15333,4663 15341,4729 15341,4857 15323,4859 15304,4861 15285,4861 15213,4861 15141,4842 15081,4800 15060,4785 15043,4778 15031,4778 15020,4778 15011,4785 15011,4796 15011,4808 15020,4825 15037,4842 15103,4908 15204,4934 15314,4934 L 15341,4934 C 15341,4979 15340,5032 15338,5091 15270,5123 15202,5169 15135,5227 14970,5367 14908,5503 14908,5604 14908,5709 14976,5777 15072,5777 15147,5777 15236,5736 15323,5636 15324,5697 15350,5726 15373,5726 15402,5726 15431,5689 15428,5616 15426,5576 15424,5538 15424,5501 15549,5323 15617,5186 15641,5095 15866,5106 16044,5259 16044,5432 16044,5599 15876,5785 15419,5879 15395,5884 15384,5894 15384,5904 15384,5914 15394,5921 15412,5921 L 15421,5921 C 15963,5858 16166,5642 16166,5437 16166,5222 15942,5018 15653,5017 Z M 15421,5264 C 15421,5215 15421,5171 15423,5130 15472,5112 15519,5102 15566,5097 15546,5169 15495,5273 15421,5381 L 15421,5264 Z M 15104,5659 C 15052,5659 15018,5621 15018,5562 15018,5494 15062,5398 15169,5293 15223,5240 15279,5200 15336,5168 15333,5267 15329,5381 15326,5510 L 15309,5530 C 15231,5621 15158,5659 15104,5659 Z"/>
    </g>
   </g>
   <g class="com.sun.star.drawing.ClosedBezierShape">
    <g id="id7">
     <rect class="BoundingBox" stroke="none" fill="none" x="16627" y="4546" width="1243" height="1368"/>
     <path fill="rgb(0,0,0)" stroke="none" d="M 17232,4876 C 17266,4864 17283,4841 17283,4820 17283,4798 17266,4776 17239,4768 17178,4749 17100,4722 17048,4698 L 17048,4690 C 17048,4656 17036,4626 17014,4595 16989,4561 16965,4546 16946,4546 16926,4546 16914,4560 16914,4585 16914,4595 16916,4609 16923,4624 16931,4646 16934,4670 16934,4697 16934,4744 16923,4802 16901,4868 L 16875,4868 C 16821,4868 16767,4858 16716,4832 16708,4829 16701,4827 16694,4827 16682,4827 16675,4834 16675,4844 16675,4856 16682,4869 16699,4881 16748,4915 16809,4932 16875,4936 16823,5069 16741,5235 16650,5440 16635,5476 16628,5508 16628,5533 16628,5577 16645,5604 16669,5604 16694,5604 16726,5574 16748,5499 16831,5235 16909,5061 16965,4936 17060,4929 17154,4903 17232,4876 Z M 17043,4736 L 17122,4778 C 17129,4781 17132,4787 17132,4790 17132,4795 17129,4802 17121,4805 17090,4822 17048,4839 17002,4851 17021,4805 17036,4768 17043,4736 Z M 17857,4983 C 17788,4875 17666,4805 17540,4775 17534,4773 17527,4773 17522,4773 17507,4773 17498,4778 17498,4787 17498,4797 17507,4809 17530,4820 17581,4849 17683,4946 17693,4964 17696,4973 17698,4980 17698,4985 17698,4991 17693,4998 17681,5000 17659,5003 17615,5012 17590,5020 17578,5025 17569,5034 17569,5040 17569,5047 17576,5054 17590,5054 17678,5056 17722,5061 17764,5073 17776,5076 17788,5078 17799,5078 17840,5078 17869,5057 17869,5024 17869,5012 17866,4998 17857,4983 Z M 17742,5647 C 17657,5603 17569,5572 17486,5554 17476,5457 17463,5366 17463,5286 17463,5228 17469,5178 17490,5137 17495,5125 17498,5115 17498,5107 17498,5095 17491,5086 17483,5086 17473,5086 17463,5095 17451,5113 17402,5193 17393,5266 17393,5354 17393,5406 17395,5467 17397,5537 17366,5533 17337,5532 17309,5532 17144,5532 17026,5594 17026,5723 17026,5846 17143,5912 17259,5912 17375,5912 17491,5848 17493,5718 L 17493,5650 C 17564,5677 17645,5718 17733,5775 17747,5784 17759,5789 17769,5789 17794,5789 17808,5767 17808,5741 17808,5709 17788,5670 17742,5647 Z M 17393,5702 C 17388,5787 17317,5828 17246,5828 17175,5828 17104,5787 17104,5713 17104,5652 17165,5604 17275,5604 17310,5604 17351,5609 17397,5620 17397,5647 17395,5674 17393,5702 Z"/>
    </g>
   </g>
   <g class="com.sun.star.drawing.ClosedBezierShape">
    <g id="id8">
     <rect class="BoundingBox" stroke="none" fill="none" x="18327" y="4539" width="1249" height="1350"/>
     <path fill="rgb(0,0,0)" stroke="none" d="M 18979,4886 C 18992,4876 18999,4862 18999,4851 18999,4832 18986,4815 18957,4807 18916,4796 18854,4778 18789,4752 18791,4735 18793,4720 18793,4705 18793,4647 18776,4603 18737,4575 18706,4549 18683,4539 18664,4539 18647,4539 18639,4549 18639,4570 18639,4588 18647,4615 18666,4651 18681,4675 18686,4707 18686,4747 18686,4795 18676,4854 18657,4925 18603,4942 18552,4949 18508,4949 18468,4949 18434,4944 18410,4932 18398,4927 18386,4923 18378,4923 18359,4923 18349,4934 18349,4945 18349,4959 18359,4974 18390,4986 18434,5006 18495,5017 18561,5017 18583,5017 18606,5015 18632,5013 18574,5186 18476,5421 18337,5733 18330,5747 18327,5765 18327,5782 18327,5835 18351,5887 18383,5887 18405,5887 18429,5862 18451,5792 18564,5443 18664,5186 18727,4998 18816,4978 18906,4940 18979,4886 Z M 18781,4802 L 18818,4825 C 18826,4831 18830,4836 18830,4841 18830,4844 18826,4849 18816,4856 18798,4868 18779,4878 18760,4886 18769,4856 18776,4829 18781,4802 Z M 18982,4993 C 18982,5002 18989,5007 19001,5007 19006,5007 19011,5007 19016,5005 19084,4990 19136,4980 19189,4980 19223,4980 19256,4983 19292,4991 19300,4993 19307,4996 19307,5003 19307,5007 19304,5012 19297,5015 19202,5073 19131,5140 19089,5213 19085,5218 19084,5225 19084,5230 19084,5235 19087,5240 19091,5240 19096,5240 19102,5235 19109,5227 19182,5142 19302,5074 19405,5046 19439,5037 19456,5015 19456,4991 19456,4964 19434,4934 19389,4915 19363,4905 19328,4900 19289,4900 19196,4900 19077,4927 19004,4966 18989,4976 18982,4986 18982,4993 Z M 19463,5742 C 19456,5742 19448,5743 19441,5743 19372,5753 19311,5759 19256,5759 19072,5759 18975,5701 18975,5579 18975,5513 19004,5430 19060,5328 19063,5322 19065,5317 19065,5313 19065,5306 19062,5301 19057,5301 19052,5301 19043,5306 19035,5318 18948,5440 18908,5543 18908,5626 18908,5796 19074,5882 19356,5882 19399,5882 19446,5880 19493,5877 19551,5872 19575,5847 19575,5821 19575,5784 19531,5742 19463,5742 Z"/>
    </g>
   </g>
   <g class="com.sun.star.drawing.ClosedBezierShape">
    <g id="id9">
     <rect class="BoundingBox" stroke="none" fill="none" x="20014" y="4628" width="1073" height="1296"/>
     <path fill="rgb(0,0,0)" stroke="none" d="M 21085,5053 C 21085,5003 21043,4972 20978,4972 20879,4972 20727,5044 20579,5231 20543,5186 20495,5157 20436,5157 20405,5157 20373,5164 20336,5180 20332,5181 20329,5183 20326,5183 20322,5183 20318,5181 20318,5177 20318,5174 20320,5170 20325,5166 20407,5059 20466,4952 20494,4862 20543,4836 20584,4800 20602,4758 20610,4740 20616,4723 20616,4710 20616,4695 20607,4684 20585,4679 20554,4673 20514,4665 20483,4662 20461,4639 20438,4628 20419,4628 20396,4628 20381,4640 20381,4661 20381,4671 20385,4685 20398,4699 20419,4724 20429,4757 20429,4789 20399,4800 20367,4807 20332,4807 20295,4807 20259,4799 20227,4779 20214,4771 20204,4768 20194,4768 20173,4768 20157,4786 20157,4810 20157,4833 20173,4864 20211,4890 20230,4903 20261,4910 20298,4910 20331,4910 20368,4906 20405,4895 20357,5017 20233,5166 20050,5315 20024,5335 20014,5358 20014,5377 20014,5405 20036,5428 20065,5428 20089,5428 20114,5416 20138,5388 20249,5259 20340,5208 20410,5208 20483,5208 20531,5268 20545,5357 20308,5472 20205,5602 20205,5708 20205,5832 20340,5922 20561,5922 20640,5922 20733,5911 20832,5883 20882,5869 20904,5848 20904,5829 20904,5800 20862,5775 20806,5775 20792,5775 20775,5776 20758,5781 20643,5814 20548,5828 20475,5828 20339,5828 20273,5778 20273,5709 20273,5626 20370,5514 20550,5425 20548,5470 20540,5520 20525,5570 20520,5584 20519,5595 20519,5605 20519,5641 20540,5661 20567,5661 20595,5661 20629,5638 20641,5584 20651,5549 20654,5514 20654,5476 20654,5445 20651,5414 20644,5385 L 20652,5382 C 20969,5265 21085,5135 21085,5053 Z M 20500,4695 C 20519,4696 20533,4701 20543,4704 20553,4707 20557,4710 20557,4716 20557,4720 20556,4723 20551,4727 20548,4730 20533,4741 20511,4754 20511,4732 20508,4712 20500,4695 Z M 20607,5275 C 20724,5109 20862,5044 20930,5044 20956,5044 20973,5053 20973,5071 20973,5116 20882,5208 20627,5320 20621,5304 20615,5289 20607,5275 Z"/>
    </g>
   </g>
   <g class="com.sun.star.drawing.ClosedBezierShape">
    <g id="id10">
     <rect class="BoundingBox" stroke="none" fill="none" x="15033" y="6486" width="1094" height="1526"/>
     <path fill="rgb(0,0,0)" stroke="none" d="M 15157,6791 C 15114,6769 15072,6751 15033,6736 L 15033,8011 15136,8011 15136,7856 15968,7856 15968,8011 16071,8011 16071,6866 16113,6837 C 16122,6832 16125,6825 16125,6819 16123,6802 16086,6766 16013,6712 L 15949,6791 15463,6791 C 15512,6725 15553,6658 15583,6588 15629,6580 15653,6568 15653,6553 15653,6529 15597,6507 15483,6487 15465,6600 15438,6702 15406,6791 L 15157,6791 Z M 15136,6834 L 15968,6834 15968,7120 15136,7120 15136,6834 Z M 15968,7455 L 15136,7455 15136,7162 15968,7162 15968,7455 Z M 15968,7814 L 15136,7814 15136,7497 15968,7497 15968,7814 Z"/>
    </g>
   </g>
   <g class="com.sun.star.drawing.ClosedBezierShape">
    <g id="id11">
     <rect class="BoundingBox" stroke="none" fill="none" x="16616" y="6537" width="1295" height="1473"/>
     <path fill="rgb(0,0,0)" stroke="none" d="M 17281,6891 L 17281,6629 C 17331,6612 17354,6597 17354,6581 17354,6556 17295,6542 17178,6537 L 17178,6891 16736,6891 C 16684,6866 16643,6847 16616,6839 L 16616,8009 16719,8009 16719,7875 17749,7875 17749,8009 17852,8009 17852,6966 17896,6937 C 17904,6932 17910,6925 17910,6917 17910,6901 17872,6864 17799,6807 L 17730,6891 17281,6891 Z M 17178,6934 L 17178,7346 16719,7346 16719,6934 17178,6934 Z M 17749,7346 L 17281,7346 17281,6934 17749,6934 17749,7346 Z M 16719,7833 L 16719,7389 17178,7389 17178,7833 16719,7833 Z M 17749,7389 L 17749,7833 17281,7833 17281,7389 17749,7389 Z"/>
    </g>
   </g>
   <g class="com.sun.star.drawing.ClosedBezierShape">
    <g id="id12">
     <rect class="BoundingBox" stroke="none" fill="none" x="18326" y="6857" width="1098" height="1097"/>
     <path fill="rgb(0,0,0)" stroke="none" d="M 18465,7953 C 18490,7953 18511,7933 18511,7898 18511,7888 18508,7876 18503,7861 18477,7772 18463,7702 18463,7645 18463,7586 18477,7537 18499,7488 18505,7473 18508,7463 18508,7455 18508,7448 18505,7443 18499,7443 18491,7443 18480,7452 18465,7470 18447,7494 18425,7532 18413,7566 18408,7580 18401,7587 18397,7587 18392,7587 18389,7580 18389,7563 18395,7292 18512,7130 18512,7007 18512,6973 18505,6942 18482,6912 18453,6874 18426,6857 18410,6857 18398,6857 18391,6866 18391,6879 18391,6891 18395,6906 18405,6925 18417,6948 18422,6974 18422,7004 18422,7134 18327,7331 18327,7568 18327,7670 18345,7779 18394,7894 18411,7933 18441,7953 18465,7953 Z M 19079,7068 C 19139,7068 19195,7060 19241,7044 19273,7033 19290,7011 19290,6992 19290,6971 19272,6953 19241,6953 19230,6953 19221,6955 19210,6959 19136,6982 19069,6996 18999,6996 18958,6996 18913,6991 18869,6977 18863,6976 18857,6974 18853,6974 18841,6974 18833,6980 18833,6989 18833,6998 18841,7008 18859,7019 18921,7053 19001,7068 19079,7068 Z M 19177,7854 C 19235,7854 19296,7846 19358,7831 19404,7819 19423,7799 19423,7779 19423,7753 19389,7728 19338,7728 19330,7728 19321,7728 19310,7729 19230,7744 19159,7756 19093,7756 19008,7756 18933,7737 18856,7674 18844,7665 18833,7661 18825,7661 18816,7661 18808,7667 18808,7676 18808,7683 18813,7692 18820,7704 18899,7808 19030,7854 19177,7854 Z"/>
    </g>
   </g>
   <g class="com.sun.star.drawing.ClosedBezierShape">
    <g id="id13">
     <rect class="BoundingBox" stroke="none" fill="none" x="19703" y="6696" width="1273" height="1285"/>
     <path fill="rgb(0,0,0)" stroke="none" d="M 20920,7015 C 20751,6966 20635,6907 20453,6784 20446,6756 20431,6737 20403,6719 20379,6704 20358,6697 20344,6697 20326,6697 20315,6707 20315,6725 20315,6741 20321,6762 20336,6790 20358,6832 20370,6903 20376,6983 20196,6999 20044,7038 19919,7038 19868,7038 19822,7033 19781,7017 19767,7011 19756,7009 19745,7009 19720,7009 19704,7024 19704,7042 19704,7067 19729,7098 19791,7120 19810,7128 19833,7131 19859,7131 19970,7131 20130,7073 20381,7057 20382,7104 20382,7151 20382,7196 L 20382,7206 C 20355,7188 20324,7179 20293,7179 20209,7179 20126,7248 20126,7375 20126,7384 20126,7391 20127,7400 20141,7566 20216,7637 20293,7637 20329,7637 20363,7623 20392,7594 20390,7735 20350,7870 20185,7938 20167,7945 20158,7956 20158,7965 20158,7974 20167,7980 20182,7980 20187,7980 20191,7980 20197,7978 20438,7916 20478,7660 20478,7476 20478,7445 20478,7417 20475,7390 20472,7351 20465,7317 20452,7291 20449,7227 20447,7172 20447,7123 20447,7098 20447,7076 20449,7054 L 20501,7054 C 20618,7054 20752,7064 20906,7092 20915,7094 20923,7094 20930,7094 20960,7094 20975,7080 20975,7065 20975,7046 20957,7025 20920,7015 Z M 20671,6985 C 20669,6985 20668,6984 20666,6984 20618,6979 20569,6977 20523,6977 20499,6977 20474,6977 20452,6978 20455,6920 20458,6876 20458,6840 20541,6892 20631,6942 20671,6966 20677,6969 20680,6974 20680,6978 20680,6982 20677,6985 20671,6985 Z M 20281,7552 C 20231,7552 20184,7501 20184,7387 20184,7295 20230,7249 20277,7249 20323,7249 20373,7295 20381,7385 20381,7393 20382,7400 20382,7408 20381,7498 20330,7552 20281,7552 Z"/>
    </g>
   </g>
   <g class="com.sun.star.drawing.ClosedBezierShape">
    <g id="id14">
     <rect class="BoundingBox" stroke="none" fill="none" x="21260" y="6776" width="991" height="1134"/>
     <path fill="rgb(0,0,0)" stroke="none" d="M 21871,7229 C 21788,7229 21699,7249 21616,7291 21613,7292 21610,7294 21607,7294 21605,7294 21604,7292 21604,7291 21604,7288 21605,7285 21608,7280 21770,7092 21856,6992 21939,6925 21964,6904 21977,6873 21977,6846 21977,6809 21952,6777 21906,6777 21879,6777 21847,6787 21807,6812 21678,6895 21588,6946 21511,6946 21487,6946 21465,6941 21443,6929 21432,6925 21425,6923 21417,6923 21404,6923 21397,6934 21397,6947 21397,6966 21410,6993 21441,7015 21460,7029 21481,7035 21508,7035 21571,7035 21665,6993 21813,6894 21822,6888 21829,6885 21833,6885 21839,6885 21844,6889 21844,6895 21844,6901 21841,6909 21835,6918 21814,6946 21371,7491 21291,7585 21271,7612 21260,7640 21260,7664 21260,7696 21278,7719 21302,7719 21323,7719 21352,7698 21380,7645 21511,7387 21693,7297 21847,7297 22020,7297 22159,7411 22161,7532 22159,7735 21995,7818 21844,7834 21851,7817 21854,7799 21854,7782 21854,7710 21783,7679 21708,7679 21623,7679 21533,7717 21533,7778 21533,7854 21669,7908 21822,7908 22022,7908 22250,7814 22250,7541 22250,7344 22073,7229 21871,7229 Z M 21610,7778 C 21608,7742 21650,7722 21691,7722 21734,7722 21777,7744 21777,7785 21777,7802 21771,7818 21759,7839 21675,7834 21608,7809 21610,7778 Z"/>
    </g>
   </g>
   <g class="com.sun.star.drawing.ClosedBezierShape">
    <g id="id15">
     <rect class="BoundingBox" stroke="none" fill="none" x="22705" y="6794" width="1201" height="1127"/>
     <path fill="rgb(0,0,0)" stroke="none" d="M 23276,7088 C 23241,7088 23204,7093 23163,7108 23182,7040 23194,6978 23194,6928 23194,6883 23184,6849 23164,6825 23145,6803 23124,6794 23110,6794 23092,6794 23080,6806 23080,6825 23080,6839 23084,6854 23095,6870 23107,6892 23114,6925 23114,6969 23114,7013 23107,7070 23087,7139 23077,7144 23068,7148 23058,7154 23028,7171 22926,7218 22831,7218 22822,7218 22813,7218 22805,7217 22797,7217 22790,7215 22784,7215 22745,7215 22725,7230 22725,7249 22725,7270 22747,7294 22799,7309 22813,7313 22828,7315 22843,7315 22919,7315 22981,7255 23064,7212 23009,7368 22905,7575 22720,7835 22710,7850 22705,7865 22705,7877 22705,7902 22726,7920 22748,7920 22765,7920 22784,7909 22797,7887 22893,7724 23055,7424 23139,7179 23185,7163 23224,7156 23256,7156 23364,7156 23410,7235 23410,7341 23410,7458 23354,7606 23261,7711 23247,7726 23230,7732 23209,7732 23163,7732 23108,7704 23080,7695 23070,7692 23061,7690 23053,7690 23039,7690 23030,7696 23030,7705 23030,7715 23041,7730 23064,7742 23101,7761 23139,7788 23166,7822 23187,7847 23215,7864 23243,7864 23267,7864 23290,7852 23314,7825 23435,7681 23496,7509 23496,7366 23496,7208 23421,7088 23276,7088 Z M 23903,7406 C 23884,7267 23822,7187 23712,7110 23698,7099 23686,7095 23677,7095 23668,7095 23664,7101 23664,7110 23664,7117 23668,7129 23678,7141 23757,7238 23795,7309 23795,7356 23795,7411 23743,7436 23644,7439 23618,7439 23607,7449 23607,7460 23607,7470 23618,7482 23635,7488 23669,7497 23746,7509 23813,7509 23872,7509 23905,7480 23905,7429 23905,7423 23905,7415 23903,7406 Z"/>
    </g>
   </g>
   <g class="com.sun.star.drawing.ClosedBezierShape">
    <g id="id16">
     <rect class="BoundingBox" stroke="none" fill="none" x="24384" y="6704" width="741" height="1247"/>
     <path fill="rgb(0,0,0)" stroke="none" d="M 24734,7642 L 24780,7642 24780,7589 C 24780,7507 24793,7438 24821,7380 24842,7336 24886,7287 24954,7232 25067,7142 25123,7054 25123,6971 25123,6893 25085,6826 25009,6774 24940,6728 24857,6704 24760,6704 24648,6704 24555,6734 24479,6795 24415,6847 24384,6906 24384,6973 24384,7013 24398,7045 24424,7070 24446,7091 24472,7102 24500,7102 24566,7102 24599,7072 24599,7013 24599,6958 24574,6931 24525,6931 24498,6931 24478,6945 24461,6970 L 24458,6942 C 24458,6899 24482,6858 24528,6821 24587,6772 24658,6749 24741,6749 24814,6749 24873,6766 24919,6803 24969,6844 24994,6897 24994,6962 24994,7035 24956,7113 24879,7199 24837,7245 24806,7287 24786,7327 24752,7393 24734,7478 24734,7581 L 24734,7642 Z M 24756,7763 C 24731,7763 24710,7772 24692,7790 24673,7809 24664,7831 24664,7856 24664,7895 24680,7923 24715,7939 24726,7947 24741,7950 24758,7950 24783,7950 24806,7939 24826,7920 24842,7901 24851,7880 24851,7856 24851,7822 24836,7795 24808,7778 24792,7767 24775,7763 24756,7763 Z"/>
    </g>
   </g>
   <g class="com.sun.star.drawing.ClosedBezierShape">
    <g id="id17">
     <rect class="BoundingBox" stroke="none" fill="none" x="20078" y="9390" width="181" height="40"/>
     <path fill="rgb(0,0,0)" stroke="none" d="M 20078,9428 C 20078,9416 20078,9403 20078,9390 20138,9390 20198,9390 20258,9390 20258,9403 20258,9416 20258,9428 20198,9428 20138,9428 20078,9428 Z"/>
    </g>
   </g>
   <g class="com.sun.star.drawing.ClosedBezierShape">
    <g id="id18">
     <rect class="BoundingBox" stroke="none" fill="none" x="20508" y="9115" width="369" height="465"/>
     <path fill="rgb(0,0,0)" stroke="none" d="M 20712,9579 C 20672,9578 20636,9569 20606,9550 20576,9531 20552,9504 20535,9469 20517,9434 20509,9394 20509,9347 20509,9301 20517,9260 20535,9225 20552,9191 20576,9164 20606,9145 20636,9125 20672,9116 20712,9116 20747,9116 20779,9123 20806,9138 20834,9153 20857,9175 20875,9202 L 20841,9223 C 20827,9201 20808,9184 20786,9172 20764,9160 20740,9155 20712,9155 20680,9155 20652,9162 20628,9178 20603,9193 20584,9215 20570,9244 20556,9273 20549,9307 20549,9347 20549,9387 20556,9421 20570,9450 20584,9479 20603,9502 20628,9517 20652,9533 20680,9540 20712,9540 20740,9540 20764,9534 20786,9523 20808,9511 20827,9494 20841,9472 L 20875,9493 C 20857,9520 20834,9541 20806,9556 20779,9571 20747,9578 20712,9579 Z"/>
    </g>
   </g>
   <g class="com.sun.star.drawing.ClosedBezierShape">
    <g id="id19">
     <rect class="BoundingBox" stroke="none" fill="none" x="20918" y="9126" width="392" height="446"/>
     <path fill="rgb(0,0,0)" stroke="none" d="M 20918,9571 C 20978,9422 21037,9274 21096,9126 21108,9126 21119,9126 21131,9126 21190,9274 21249,9422 21309,9571 21294,9571 21280,9571 21265,9571 21248,9526 21230,9481 21213,9437 21146,9437 21080,9437 21014,9437 20996,9481 20979,9526 20961,9571 20947,9571 20932,9571 20918,9571 Z M 21027,9399 C 21084,9399 21142,9399 21199,9399 21170,9326 21142,9254 21114,9181 21085,9254 21056,9326 21027,9399 Z"/>
    </g>
   </g>
   <g class="com.sun.star.drawing.ClosedBezierShape">
    <g id="id20">
     <rect class="BoundingBox" stroke="none" fill="none" x="21356" y="9116" width="316" height="464"/>
     <path fill="rgb(0,0,0)" stroke="none" d="M 21520,9579 C 21486,9578 21455,9572 21427,9560 21399,9548 21376,9529 21357,9504 L 21388,9482 C 21403,9501 21422,9515 21444,9525 21466,9536 21491,9541 21520,9541 21540,9541 21559,9538 21575,9532 21592,9526 21605,9517 21616,9505 21626,9493 21631,9477 21631,9459 21631,9443 21628,9429 21621,9417 21614,9405 21602,9395 21583,9386 21564,9377 21535,9369 21498,9362 21415,9347 21373,9306 21373,9239 21373,9215 21379,9194 21391,9175 21403,9157 21419,9142 21440,9132 21462,9122 21486,9117 21514,9117 21544,9117 21570,9122 21594,9133 21618,9145 21639,9160 21659,9178 L 21631,9205 C 21614,9190 21596,9178 21578,9169 21559,9160 21538,9155 21513,9155 21485,9155 21461,9162 21442,9177 21423,9191 21414,9211 21414,9238 21414,9261 21421,9280 21436,9294 21451,9309 21478,9320 21518,9327 21572,9337 21612,9352 21635,9373 21659,9393 21671,9422 21671,9458 21671,9483 21664,9505 21651,9523 21638,9541 21619,9555 21597,9564 21574,9574 21548,9578 21520,9579 Z"/>
    </g>
   </g>
   <g class="com.sun.star.drawing.ClosedBezierShape">
    <g id="id21">
     <rect class="BoundingBox" stroke="none" fill="none" x="21752" y="9126" width="321" height="454"/>
     <path fill="rgb(0,0,0)" stroke="none" d="M 21912,9579 C 21862,9578 21822,9563 21795,9532 21767,9502 21753,9457 21753,9398 L 21753,9126 21793,9126 21793,9397 C 21793,9442 21803,9477 21823,9502 21843,9527 21873,9540 21912,9540 21952,9540 21982,9527 22002,9502 22022,9477 22032,9442 22032,9397 L 22032,9126 22072,9126 22072,9398 C 22072,9457 22058,9502 22030,9532 22003,9563 21964,9578 21912,9579 Z"/>
    </g>
   </g>
   <g class="com.sun.star.drawing.ClosedBezierShape">
    <g id="id22">
     <rect class="BoundingBox" stroke="none" fill="none" x="22133" y="9126" width="392" height="446"/>
     <path fill="rgb(0,0,0)" stroke="none" d="M 22133,9571 C 22193,9422 22252,9274 22312,9126 22323,9126 22334,9126 22346,9126 22405,9274 22464,9422 22524,9571 22509,9571 22495,9571 22480,9571 22463,9526 22445,9481 22428,9437 22361,9437 22295,9437 22229,9437 22211,9481 22194,9526 22176,9571 22162,9571 22147,9571 22133,9571 Z M 22242,9399 C 22299,9399 22357,9399 22414,9399 22385,9326 22357,9254 22329,9181 22300,9254 22271,9326 22242,9399 Z"/>
    </g>
   </g>
   <g class="com.sun.star.drawing.ClosedBezierShape">
    <g id="id23">
     <rect class="BoundingBox" stroke="none" fill="none" x="22589" y="9125" width="286" height="447"/>
     <path fill="rgb(0,0,0)" stroke="none" d="M 22589,9570 C 22589,9422 22589,9274 22589,9126 22602,9126 22615,9126 22628,9126 22628,9261 22628,9397 22628,9533 22710,9533 22792,9533 22874,9533 22874,9546 22874,9558 22874,9570 22779,9570 22684,9570 22589,9570 Z"/>
    </g>
   </g>
   <g class="com.sun.star.drawing.ClosedBezierShape">
    <g id="id24">
     <rect class="BoundingBox" stroke="none" fill="none" x="23087" y="9266" width="270" height="306"/>
     <path fill="rgb(0,0,0)" stroke="none" d="M 23207,9571 C 23167,9469 23127,9368 23087,9266 23101,9266 23114,9266 23127,9266 23159,9349 23191,9432 23223,9515 23254,9432 23286,9349 23317,9266 23330,9266 23342,9266 23355,9266 23317,9368 23278,9469 23240,9571 23229,9571 23218,9571 23207,9571 Z"/>
    </g>
   </g>
   <g class="com.sun.star.drawing.ClosedBezierShape">
    <g id="id25">
     <rect class="BoundingBox" stroke="none" fill="none" x="23390" y="9259" width="275" height="320"/>
     <path fill="rgb(0,0,0)" stroke="none" d="M 23532,9578 C 23505,9577 23480,9571 23459,9558 23438,9545 23421,9527 23409,9503 23397,9479 23391,9451 23391,9418 23391,9386 23397,9359 23409,9335 23421,9311 23438,9293 23459,9279 23480,9266 23504,9259 23531,9259 23559,9259 23582,9266 23601,9280 23621,9294 23635,9311 23645,9333 23656,9355 23661,9378 23661,9402 L 23661,9415 23430,9415 C 23429,9453 23438,9484 23457,9507 23475,9531 23501,9543 23533,9543 23557,9543 23577,9537 23593,9524 23609,9512 23622,9494 23632,9471 L 23664,9489 C 23637,9548 23593,9577 23532,9578 Z M 23432,9382 L 23623,9382 C 23621,9365 23615,9350 23607,9337 23599,9323 23588,9313 23575,9305 23562,9297 23548,9293 23531,9293 23505,9293 23484,9300 23466,9316 23449,9332 23437,9354 23432,9382 Z"/>
    </g>
   </g>
   <g class="com.sun.star.drawing.ClosedBezierShape">
    <g id="id26">
     <rect class="BoundingBox" stroke="none" fill="none" x="23742" y="9258" width="176" height="314"/>
     <path fill="rgb(0,0,0)" stroke="none" d="M 23743,9571 L 23743,9266 23780,9266 23782,9319 C 23790,9301 23804,9287 23822,9275 23840,9264 23861,9259 23883,9259 23889,9259 23895,9259 23901,9259 23908,9260 23913,9261 23917,9262 L 23917,9300 C 23913,9299 23908,9298 23901,9297 23894,9296 23887,9296 23880,9296 23862,9296 23845,9300 23831,9308 23816,9317 23804,9328 23795,9341 23787,9355 23782,9371 23782,9388 L 23782,9571 23743,9571 Z"/>
    </g>
   </g>
   <g class="com.sun.star.drawing.ClosedBezierShape">
    <g id="id27">
     <rect class="BoundingBox" stroke="none" fill="none" x="23957" y="9258" width="244" height="321"/>
     <path fill="rgb(0,0,0)" stroke="none" d="M 24084,9578 C 24057,9577 24032,9572 24010,9562 23988,9551 23971,9536 23957,9516 L 23985,9493 C 23995,9509 24009,9521 24027,9529 24044,9538 24064,9542 24085,9542 24106,9542 24124,9537 24138,9528 24153,9519 24160,9505 24160,9485 24160,9468 24153,9456 24139,9449 24125,9442 24104,9436 24075,9430 24057,9426 24041,9422 24025,9416 24009,9411 23996,9402 23986,9391 23977,9380 23972,9364 23972,9344 23972,9326 23977,9311 23987,9298 23997,9285 24010,9275 24026,9269 24043,9262 24060,9259 24079,9259 24129,9259 24166,9276 24189,9312 L 24163,9335 C 24146,9308 24118,9294 24080,9294 24058,9294 24041,9299 24029,9308 24017,9318 24011,9330 24011,9344 24011,9359 24018,9370 24030,9377 24043,9384 24063,9390 24090,9396 24110,9400 24127,9405 24144,9412 24161,9418 24174,9427 24184,9438 24195,9450 24200,9466 24200,9486 24200,9513 24189,9535 24168,9552 24147,9569 24119,9577 24084,9578 Z"/>
    </g>
   </g>
   <g class="com.sun.star.drawing.ClosedBezierShape">
    <g id="id28">
     <rect class="BoundingBox" stroke="none" fill="none" x="24271" y="9141" width="61" height="431"/>
     <path fill="rgb(0,0,0)" stroke="none" d="M 24283,9571 L 24283,9266 24321,9266 24321,9571 24283,9571 Z M 24302,9200 C 24294,9200 24287,9197 24281,9191 24275,9186 24272,9179 24272,9171 24272,9162 24275,9155 24281,9150 24287,9144 24294,9142 24302,9142 24310,9142 24317,9144 24322,9150 24328,9155 24330,9162 24330,9171 24330,9179 24328,9186 24322,9191 24317,9197 24310,9200 24302,9200 Z"/>
    </g>
   </g>
   <g class="com.sun.star.drawing.ClosedBezierShape">
    <g id="id29">
     <rect class="BoundingBox" stroke="none" fill="none" x="24406" y="9258" width="285" height="321"/>
     <path fill="rgb(0,0,0)" stroke="none" d="M 24548,9578 C 24521,9577 24497,9571 24475,9557 24454,9544 24438,9525 24425,9501 24413,9477 24407,9449 24407,9418 24407,9387 24413,9359 24425,9335 24438,9311 24454,9292 24475,9279 24497,9265 24521,9259 24548,9259 24575,9259 24600,9265 24621,9279 24642,9292 24659,9311 24671,9335 24683,9359 24689,9387 24689,9418 24689,9449 24683,9477 24671,9501 24659,9525 24642,9544 24621,9557 24600,9571 24575,9577 24548,9578 Z M 24548,9541 C 24568,9541 24585,9536 24601,9526 24616,9516 24628,9502 24637,9483 24646,9465 24651,9443 24651,9418 24651,9393 24646,9371 24637,9353 24628,9334 24616,9320 24601,9310 24585,9300 24568,9295 24548,9295 24518,9295 24494,9306 24474,9328 24455,9350 24446,9380 24446,9418 24446,9455 24455,9485 24474,9508 24494,9530 24518,9541 24548,9541 Z"/>
    </g>
   </g>
   <g class="com.sun.star.drawing.ClosedBezierShape">
    <g id="id30">
     <rect class="BoundingBox" stroke="none" fill="none" x="24766" y="9258" width="243" height="314"/>
     <path fill="rgb(0,0,0)" stroke="none" d="M 24767,9571 L 24767,9266 24803,9266 24804,9309 C 24814,9295 24827,9283 24844,9273 24860,9263 24878,9259 24899,9259 24932,9259 24958,9269 24978,9290 24998,9310 25008,9340 25008,9379 L 25008,9571 24970,9571 24970,9384 C 24970,9355 24962,9332 24948,9318 24934,9303 24916,9295 24893,9295 24876,9295 24861,9299 24848,9306 24835,9314 24824,9324 24817,9336 24809,9349 24806,9363 24806,9378 L 24806,9571 24767,9571 Z"/>
    </g>
   </g>
   <g class="com.sun.star.drawing.ClosedBezierShape">
    <g id="id31">
     <rect class="BoundingBox" stroke="none" fill="none" x="25277" y="9390" width="181" height="40"/>
     <path fill="rgb(0,0,0)" stroke="none" d="M 25277,9428 C 25277,9416 25277,9403 25277,9390 25337,9390 25397,9390 25457,9390 25457,9403 25457,9416 25457,9428 25397,9428 25337,9428 25277,9428 Z"/>
    </g>
   </g>
  </g>
 </g>
</svg>